<?xml version="1.0" encoding="UTF-8" standalone="no"?>
<svg
   width="512"
   height="512"
   version="1.1"
   id="svg247"
   sodipodi:docname="favicon.svg"
   inkscape:version="1.3-dev (f3df6cc7, 2022-08-24)"
   xmlns:inkscape="http://www.inkscape.org/namespaces/inkscape"
   xmlns:sodipodi="http://sodipodi.sourceforge.net/DTD/sodipodi-0.dtd"
   xmlns="http://www.w3.org/2000/svg"
   xmlns:svg="http://www.w3.org/2000/svg">
  <defs
     id="defs247" />
  <sodipodi:namedview
     id="namedview247"
     pagecolor="#ffffff"
     bordercolor="#000000"
     borderopacity="0.25"
     inkscape:showpageshadow="2"
     inkscape:pageopacity="0.0"
     inkscape:pagecheckerboard="0"
     inkscape:deskcolor="#d1d1d1"
     showgrid="false"
     inkscape:zoom="1.3037281"
     inkscape:cx="227.42472"
     inkscape:cy="240.46425"
     inkscape:window-width="1920"
     inkscape:window-height="1177"
     inkscape:window-x="-8"
     inkscape:window-y="-8"
     inkscape:window-maximized="1"
     inkscape:current-layer="svg247" />
  <path
     style="display:inline;fill:#000000;stroke:none"
     d="M 169,104 C 146.341,85.61 119.45,74.3882 90,82.1559 c -7.8998,2.0837 -31.0871,8.9484 -26.3958,20.7851 1.765,4.454 7.451,4.639 11.3958,3.36 12.6552,-4.103 21.8956,-11.6093 36,-11.2864 26.949,0.617 50.848,21.4274 65.985,41.9854 4.844,6.578 12.809,26.192 22.971,23.677 4.797,-1.186 5.624,-6.6 4.228,-10.677 -3.65,-10.665 -10.5,-20.196 -14.181,-31 C 178.175,84.2851 178.829,47.4193 214,26.4529 263.265,-2.91541 340.543,29.218 330.08,93 c -3.046,18.57 -9.916,35.469 -18.771,52 -2.37,4.425 -5.857,12.671 0.8,15.396 5.199,2.128 9.18,-1.387 11.837,-5.411 6.883,-10.426 13.586,-20.795 22.144,-29.985 26.487,-28.4463 65.59,-41.3603 97.91,-13.7 31.003,26.534 48.048,78.379 14.961,110.61 -8.232,8.019 -18.295,13.606 -28.961,17.666 -15.775,6.004 -34.086,9.334 -51,9.423 -5.644,0.03 -12.717,0.285 -11.833,7.996 0.614,5.353 5.407,5.968 9.833,6.58 11.627,1.607 23.314,1.456 35,3.509 29.235,5.136 58.112,24.321 64.192,54.916 7.065,35.549 -16.519,65.356 -42.083,86.039 -4.332,3.505 -5.934,10.768 -0.04,13.793 7.013,3.597 15.927,-4.846 20.931,-8.836 16.395,-13.073 28.764,-32.714 34.116,-52.996 8.167,-30.95 2.05,-64.159 -23.116,-85.7 -9.835,-8.418 -21.454,-12.899 -33,-18.3 20.072,-8.942 37.851,-18.369 49.547,-38 C 511.833,168.846 476.749,97.3758 424,82.4283 395.538,74.363 365.332,84.41 344,104 346.736,92.8956 347.331,79.3343 345.561,68 331.487,-22.1137 182.502,-23.2612 167.754,67 165.832,78.7636 166.21,92.4136 169,104 Z"
     id="path2" />
  <path
     style="display:inline;fill:#ff3f62;stroke:none"
     d="m 200,161 21,38 27,-9 c 0,-19.491 -1.408,-39.569 0.055,-59 0.546,-7.257 7.934,-12.853 13.431,-5.891 3.264,4.134 2.514,9.964 2.514,14.891 v 33 c 0,3.966 -1.533,12.104 1.028,15.4 2.703,3.48 14.63,5.415 18.972,6.6 4.803,-8.144 9.562,-24.357 21,-23 1.471,-3.413 4.693,-7.229 4.857,-11 0.179,-4.134 -2.176,-6.72 -0.501,-11 11.239,-28.709 28.265,-56.589 18.602,-89 C 312.642,9.6333 233.708,1.37662 199.09,37.0394 177.34,59.4462 180.753,92.851 190.003,120 c 3.654,10.723 21.014,32.267 9.997,41 z"
     id="path7" />
  <path
     style="display:inline;fill:#000000;stroke:none"
     d="m 252.133,55.0285 c -7.367,4.1952 -5.741,32.7163 -3.329,39.9275 1.5,4.486 6.834,6.503 11.048,4.0162 3.523,-2.0791 3.141,-6.4368 3.148,-9.9722 0.019,-9.0745 2.113,-21.2297 -0.434,-29.956 -1.259,-4.3168 -6.505,-6.2519 -10.433,-4.0155 z"
     id="path13" />
  <path
     style="display:inline;fill:#ff728b;stroke:none"
     d="m 64,104 h -1 c -8.9715,7.415 -1.9412,28.787 -21,23 l -4,9 c 8.1687,6.863 -0.0893,21.013 -2.1119,30 -3.0084,13.368 0.2534,29.946 6.385,42 17.6537,34.705 59.0289,37.154 92.7269,40.094 7.177,0.626 9.849,8.352 16.988,7.843 5.352,-0.382 7.098,-5.927 12.016,-7.423 C 171.617,246.198 182.067,248 190,248 c 1.669,-9.518 -7.604,-10.244 -15,-12.947 -16.957,-6.196 -34.115,-11.85 -51,-18.245 -5.601,-2.121 -21.215,-4.845 -18.928,-13.793 2.661,-10.414 16.882,-2.851 22.928,-0.591 16.579,6.198 33.281,12.115 50,17.92 4.534,1.574 13.966,7.264 18.655,4.588 5.658,-3.229 0.339,-8.137 -2.66,-10.685 -5.14,-4.368 -24.943,-16.187 -21.568,-24.228 3.354,-7.99 10.97,-3.471 15.573,0.243 8.589,6.929 21.507,24.419 31.353,10.274 2.89,-4.151 -2.078,-9.949 -4.047,-13.536 -3.874,-7.053 -7.395,-16.838 -12.943,-22.683 -2.704,-2.848 -7.008,-2.792 -9.845,-5.661 C 186.562,152.634 182.734,143.801 177.625,137 164.462,119.476 147.717,103.479 126,97.7346 114.753,94.7592 101.018,94.7998 90,98.6991 80.9255,101.911 72.9596,111.126 64,104 Z"
     id="path29" />
  <path
     style="display:inline;fill:#ff728b;stroke:none"
     d="m 310,161 -5,12 c 9.829,8.704 -5.714,18.72 -6.713,27.985 -0.484,4.494 6.304,8.623 8.713,12.015 7.714,-1.392 14.466,-7.201 21,-11.319 l 38,-24 c 5.292,-3.335 15.456,-12.815 21.996,-11.943 14.819,1.977 -0.109,15.493 -4.996,18.581 -21.98,13.888 -44.319,27.334 -66,41.681 l 6,23 c 5.883,0 13.424,-1.235 18.999,0.894 4.599,1.755 6.771,5.854 12.016,6.087 3.127,0.138 7.693,0.732 10.61,-0.584 4.075,-1.839 5.493,-6.277 10.375,-7.169 27.657,-5.048 54.004,-2.111 78,-20.464 C 498.134,193.245 473.367,114.738 423,98.8881 392.887,89.412 364.241,103.252 344.286,126 335.24,136.312 324.99,162.759 310,161 Z"
     id="path32" />
  <path
     style="display:inline;fill:#000000;stroke:none"
     d="m 49.9969,109.617 c -10.6319,2.425 -13.159,22.103 -8e-4,18.792 9.828,-2.473 12.018,-21.534 8e-4,-18.792 z"
     id="path44" />
  <path
     style="display:inline;fill:#000000;stroke:none"
     d="m 248,190 c -9.269,1.197 -18.013,3.891 -26,8.815 -3.383,2.086 -8.745,8.007 -13,7.082 -9.841,-2.139 -16.922,-15.435 -26,-19.733 -4.581,-2.169 -9.977,-0.637 -10.752,4.841 -2.36,16.665 30.04,18.124 24.752,35.995 -25.025,-9.654 -50.497,-19.018 -76,-27.33 -3.276,-1.068 -7.458,-2.912 -10.956,-2.066 -5.572,1.348 -6.394,9.107 -2.61,12.747 4.315,4.152 13.03,5.571 18.566,7.596 14.615,5.345 29.258,10.74 44,15.72 4.682,1.582 19.881,4.536 20.534,10.419 0.538,4.85 -5.255,4.891 -8.534,4.913 -6.479,0.045 -23.577,-3.249 -24.728,6.016 -0.989,7.967 7.133,7.983 12.728,7.985 11.137,0.004 19.401,-2.564 22.235,10 0.479,2.124 1.511,4.652 0.553,6.787 -1.405,3.13 -6.003,4.529 -8.788,6.074 -7.624,4.23 -15.343,8.277 -23,12.448 -4.509,2.456 -10.066,5.577 -8.667,11.672 1.46,6.356 9.15,5.441 13.667,3.338 8.555,-3.982 16.754,-8.885 25,-13.458 2.842,-1.576 7.506,-5.078 10.91,-3.759 2.562,0.992 4.364,3.975 6.18,5.894 2.191,2.316 6.563,4.986 7.464,8.174 2.288,8.091 -12.072,15.864 -10.077,24.815 1.16,5.206 7.154,7.158 11.419,4.272 C 222.648,335.364 227.951,324.474 230,318 l 18,4 v 54 c 0,5.674 -1.12,16.226 7.005,16.793 C 263.949,393.418 263,382.892 263,377 v -55 c 9.144,-0.722 17.904,-2.892 26,-7.312 3.536,-1.931 8.702,-7.324 13,-5.871 11.117,3.76 23.127,19.917 32,27.607 4.013,3.478 8.119,8.807 13.996,8.399 7.79,-0.541 8.112,-8.855 3.776,-13.653 C 341.578,319.89 324.714,302.394 311,296 l 5,-10 c 18.629,5.085 36.809,12.834 55,19.308 5.448,1.939 15.349,7.212 20.697,2.95 8.364,-6.666 -1.855,-12.967 -7.697,-14.925 -20.14,-6.748 -41.073,-17.732 -62,-21.333 0.201,-2.635 0.378,-5.195 3.148,-6.397 6.056,-2.625 13.627,1.217 19.719,-2.037 4.826,-2.577 4.692,-9.837 0,-12.538 C 341.837,249.284 337.352,250 334,250 h -11 l -6,-24 c 24.44,-11.424 50.121,-29.062 71.985,-44.901 6.658,-4.824 7.897,-15.987 -2.986,-14.951 -6.492,0.618 -12.636,6.335 -17.999,9.66 -13.065,8.101 -25.952,16.488 -39,24.616 -4.46,2.777 -15.428,12.769 -20.83,11.155 -16.058,-4.797 -5.302,-17.753 -1.155,-26.579 2.123,-4.517 2.865,-10.67 -3.059,-12.482 C 293.772,169.402 286.993,187.848 284,195 l -21,-5 v -51 c 0,-5.33 1.878,-14.969 -5.019,-16.678 C 248.526,119.978 248,129.413 248,136 Z"
     id="path49" />
  <path
     style="display:inline;fill:#000000;stroke:none"
     d="m 79,256 c -18.7755,8.364 -36.0982,16.992 -47.564,35 -31.4514057,49.397 1.8365,123.064 56.564,138.572 28.462,8.065 58.668,-1.982 80,-21.572 -2.79,11.586 -3.168,25.236 -1.246,37 14.744,90.242 163.73,89.13 177.807,-1 1.77,-11.334 1.175,-24.896 -1.561,-36 13.928,12.13 31.999,23.121 51,23.961 6.253,0.276 24.154,1.724 19.817,-9.917 -2.092,-5.615 -7.941,-4.937 -12.817,-5.059 -8.001,-0.199 -15.634,-2.428 -23,-5.439 -20.553,-8.4 -36.469,-26.613 -48.656,-44.546 -3.941,-5.799 -8.942,-19.2 -18.235,-15.396 -6.716,2.749 -3.137,11.003 -0.684,15.396 9.274,16.605 16.819,35.013 19.286,54 8.627,66.425 -73.675,93.921 -121.711,61.48 -29.366,-19.833 -30.997,-55.974 -20.343,-86.48 3.796,-10.872 9.059,-20.701 14.069,-31 1.897,-3.9 3.576,-9.064 -0.044,-12.566 -5.236,-5.066 -10.639,0.031 -13.628,4.581 C 177.426,373.193 166.583,388.85 151,400.764 135.568,412.562 116.427,419.562 97,415.486 46.2741,404.843 13.923,330.662 52.1705,291.09 68.6423,274.047 93.9503,266.381 117,264.17 c 6.549,-0.628 25.742,1.79 27.677,-6.189 C 147.837,244.953 122.4,248.194 115,247.285 82.0126,243.233 49.3018,229.713 37.544,196 31.2616,177.987 38.2619,163.357 41.6204,146 42.5729,141.077 40.9447,135.024 35,134.724 28.9919,134.42 26.933,140.429 25.1937,145 c -4.0753,10.711 -6.6532,23.506 -6.1543,35 1.711,39.423 26.6182,60.403 59.9606,76 z"
     id="path51" />
  <path
     style="display:inline;fill:#000000;stroke:none"
     d="m 135.228,154.028 c -4.048,2.474 -3.268,7.67 -0.794,10.933 4.362,5.754 20.374,21.723 28.418,17.01 4.341,-2.543 3.447,-8.549 0.83,-11.956 -4.637,-6.037 -19.898,-21.216 -28.454,-15.987 z"
     id="path55" />
  <path
     style="display:inline;fill:#ffda44;stroke:none"
     d="m 255,307 v -1 c -37.011,-23.15 -36.97,-76.875 0,-100 -17.577,-7.359 -39.022,15.437 -45.626,29 -15.751,32.35 10.57,71.903 45.626,72 z"
     id="path91" />
  <path
     style="display:inline;fill:#ffeb99;stroke:none"
     d="m 255,205.728 c -28.969,10.356 -33.155,52.467 -22.561,76.272 8.015,18.009 23.245,29.205 42.561,22.3 26.259,-9.386 41.063,-42.554 29.359,-68.3 C 297.088,220.006 274.875,198.622 255,205.728 Z"
     id="path92" />
  <path
     style="display:inline;fill:#ff3f62;stroke:none"
     d="m 156,255 c -2.901,0.858 -6.849,0.394 -9.406,2.027 -3.56,2.273 -5.066,5.699 -9.594,6.629 -7.905,1.623 -16.897,0.629 -25,1.51 -21.6614,2.354 -45.4414,9.576 -60.7106,25.924 -37.6287,40.285 -4.2433,118.1 48.7106,124.624 28.26,3.481 52.871,-11.473 70.385,-32.714 7.42,-8.999 18.21,-35.736 31.615,-31 1.113,-3.784 4.018,-7.185 4.732,-11 0.738,-3.939 -1.974,-6.942 -0.303,-11 2.327,-5.651 9.879,-12.692 9.835,-18.91 -0.029,-4.124 -12.129,-16.369 -16.279,-15.957 -9.962,0.988 -23.126,11.986 -31.985,16.648 -4.875,2.565 -10.277,6.021 -14.393,0.11 -3.893,-5.591 2.053,-9.944 6.394,-12.463 8.516,-4.942 17.347,-9.416 25.999,-14.119 3.097,-1.684 7.604,-3.134 7.523,-7.352 C 193.062,253.984 165.783,271.867 156,255 m 193,1 c -3.135,11.975 -16.174,9 -26,9 l -1,7 c 21.326,5.821 42.114,14.749 63,22.004 6.354,2.207 14.688,9.992 4.981,14.802 -5.889,2.918 -16.362,-2.87 -21.981,-4.998 -16.427,-6.222 -34.7,-14.831 -52,-17.808 -8.221,15.713 17.242,29.183 28,39 3.895,3.554 13.308,9.373 9.806,15.811 -5.457,10.031 -16.123,-1.988 -20.806,-6.096 -7.042,-6.177 -14.147,-12.355 -21,-18.74 -2.868,-2.671 -6.843,-7.586 -11,-8.083 -3.98,-0.476 -8.684,4.26 -12,6.108 l 21,37 c 13.115,-2.046 23.233,23.034 30.615,32 11.663,14.166 27.314,26.898 45.385,31.522 6.36,1.627 12.666,0.658 18.999,1.807 4.565,0.829 6.379,4.575 10.326,6.032 4.727,1.745 11.704,-2.104 15.675,-4.361 -1.79,-9.76 10.928,-14.242 17,-20.039 12.156,-11.606 21.099,-25.691 25.575,-41.961 2.295,-8.343 3.768,-17.333 3.386,-26 -0.29,-6.569 -1.766,-13.889 -4.165,-20 -16.749,-42.658 -60.963,-39.505 -97.796,-46.228 -4.882,-0.892 -6.3,-5.33 -10.375,-7.169 C 360.422,254.707 353.55,256 349,256 Z"
     id="path143" />
  <path
     style="display:inline;fill:#ff728b;stroke:none"
     d="m 248,322 -18,-4 c -4.734,10.127 -10.337,23.486 -23,22 -1.469,3.147 -4.115,6.48 -4.474,10 -0.412,4.046 2.228,6.843 0.634,11 -7.542,19.669 -18.889,36.282 -20.99,58 -1.967,20.327 1.65,42.136 16.869,56.91 33.819,32.827 107.493,27.277 126.034,-19.91 10.327,-26.28 1.471,-57.783 -10.332,-82 -2.267,-4.65 -6.653,-9.767 -7.243,-15 -0.445,-3.951 2.653,-7.007 1.223,-11 -4.028,-11.243 -13.135,-23.046 -19.721,-33 -5.146,1.471 -20.837,4.564 -23.972,8.6 C 262.467,326.896 264,335.034 264,339 v 35 c 0,5.474 0.695,11.507 -3.279,15.887 -5.898,6.503 -12.402,0.049 -12.702,-6.887 C 247.143,362.75 248,342.271 248,322 Z"
     id="path185" />
  <path
     style="display:inline;fill:#000000;stroke:none"
     d="m 122,319.815 c -8.222,2.843 -23.8632,9.782 -29.2569,16.703 -5.307,6.809 2.614,12.767 9.2569,10.984 8.275,-2.222 24.94,-10.233 30.258,-17.02 5.786,-7.385 -3.523,-12.996 -10.258,-10.667 z"
     id="path189" />
  <path
     style="display:inline;fill:#000000;stroke:none"
     d="m 364.109,348.746 c -5.106,2.116 -4.589,8.525 -1.791,12.254 4.908,6.543 19.222,22.256 28.573,18.397 4.846,-2 4.49,-7.826 1.791,-11.393 -4.538,-5.997 -20.149,-22.748 -28.573,-19.258 z"
     id="path203" />
  <path
     style="display:inline;fill:#000000;stroke:none"
     d="m 255.003,410.788 c -10.822,0.631 -8.271,31.403 -6.659,39.211 0.791,3.829 3.418,7.091 7.652,6.794 4.237,-0.297 6.286,-3.976 6.815,-7.793 1.099,-7.923 4.289,-38.917 -7.808,-38.212 z"
     id="path220" />
</svg>
